<svg width="1920" height="903" viewBox="0 0 1920 903" fill="none" xmlns="http://www.w3.org/2000/svg">
<path opacity="0.07" d="M2471.16 136.925C2470.46 138.094 2469.44 139.033 2468.21 139.625C2466.99 140.216 2465.62 140.433 2464.27 140.25L2424.74 277.025C2424.91 277.092 2425.08 277.155 2425.25 277.236C2426.02 277.554 2426.71 278.03 2427.28 278.634C2427.86 279.237 2428.3 279.954 2428.58 280.738C2428.86 281.523 2428.97 282.357 2428.9 283.187C2428.84 284.017 2428.6 284.824 2428.2 285.556C2427.63 286.546 2426.81 287.374 2425.82 287.962C2424.84 288.55 2423.72 288.88 2422.57 288.92L2410.73 440.532C2411.32 440.638 2411.9 440.82 2412.44 441.073C2413.21 441.391 2413.9 441.867 2414.48 442.47C2415.05 443.073 2415.49 443.79 2415.77 444.574C2416.05 445.358 2416.16 446.193 2416.1 447.023C2416.04 447.853 2415.8 448.66 2415.4 449.393C2414.5 450.892 2413.06 451.999 2411.38 452.5C2409.7 453.001 2407.9 452.859 2406.32 452.103C2405.46 451.71 2404.69 451.133 2404.08 450.412L2302.63 505.786C2303.02 506.613 2303.21 507.523 2303.18 508.439C2303.15 509.355 2302.9 510.25 2302.44 511.048C2301.54 512.546 2300.11 513.653 2298.43 514.153C2296.75 514.654 2294.95 514.513 2293.37 513.758C2292.7 513.45 2292.09 513.034 2291.56 512.528L2226.4 556.628C2226.94 557.497 2227.23 558.495 2227.25 559.517C2227.27 560.539 2227.02 561.547 2226.52 562.438C2225.73 563.817 2224.47 564.864 2222.97 565.384L2250.78 666.377C2252.1 666.232 2253.43 666.45 2254.64 667.006C2255.41 667.325 2256.1 667.802 2256.67 668.405C2257.25 669.009 2257.69 669.726 2257.97 670.51C2258.25 671.295 2258.36 672.129 2258.29 672.959C2258.23 673.789 2258 674.597 2257.6 675.33C2256.86 676.572 2255.75 677.552 2254.42 678.133C2253.09 678.715 2251.62 678.869 2250.2 678.575L2222.26 752.281L2222.31 752.299C2223.08 752.618 2223.77 753.094 2224.34 753.697C2224.92 754.301 2225.36 755.017 2225.64 755.801C2225.92 756.585 2226.03 757.419 2225.96 758.249C2225.9 759.078 2225.67 759.886 2225.27 760.619C2224.36 762.117 2222.93 763.224 2221.25 763.726C2219.57 764.227 2217.76 764.087 2216.18 763.333C2215.35 762.963 2214.62 762.418 2214.02 761.737C2213.42 761.056 2212.98 760.253 2212.72 759.385L2107.69 771.775C2107.69 772.755 2107.44 773.718 2106.96 774.575C2106.05 776.072 2104.62 777.178 2102.94 777.678C2101.26 778.178 2099.46 778.037 2097.88 777.282C2097.11 776.963 2096.41 776.486 2095.84 775.882C2095.27 775.279 2094.83 774.561 2094.55 773.777C2094.27 772.993 2094.16 772.159 2094.22 771.328C2094.29 770.498 2094.52 769.691 2094.92 768.958C2094.98 768.846 2095.06 768.737 2095.12 768.624L1925.76 647.633L1925.24 648.02L1924.98 647.078L1922.22 645.106L1924.55 645.566L1893.14 533.415C1891.8 533.568 1890.46 533.351 1889.24 532.786C1888.07 532.279 1887.08 531.414 1886.42 530.313C1885.77 529.212 1885.48 527.932 1885.59 526.656L1787.9 505.769C1787.81 505.983 1787.71 506.194 1787.6 506.405C1786.69 507.902 1785.26 509.008 1783.58 509.508C1781.9 510.008 1780.09 509.867 1778.51 509.112C1777.11 508.522 1775.98 507.419 1775.36 506.027C1774.74 504.634 1774.67 503.058 1775.17 501.618L1503.54 522.885C1503.49 523.774 1503.25 524.642 1502.81 525.42C1501.9 526.917 1500.47 528.023 1498.79 528.523C1497.11 529.024 1495.31 528.882 1493.73 528.127C1492.96 527.809 1492.26 527.332 1491.69 526.729C1491.12 526.125 1490.68 525.408 1490.4 524.624C1490.12 523.839 1490 523.005 1490.07 522.174C1490.13 521.344 1490.37 520.536 1490.76 519.803C1491.41 518.66 1492.39 517.743 1493.58 517.174L1412.58 324.351C1411.01 324.697 1409.38 324.522 1407.92 323.851C1406.63 323.259 1405.57 322.26 1404.9 321.007L1314.19 348.4C1314.48 349.752 1314.26 351.166 1313.58 352.369C1312.67 353.867 1311.24 354.974 1309.56 355.475C1307.88 355.977 1306.08 355.837 1304.49 355.083C1303.42 354.617 1302.51 353.856 1301.86 352.89C1301.2 351.923 1300.84 350.79 1300.81 349.624L1214.48 340.101C1214.35 340.547 1214.18 340.977 1213.96 341.384C1213.05 342.882 1211.61 343.99 1209.93 344.492C1208.26 344.993 1206.45 344.853 1204.87 344.098C1204.1 343.779 1203.41 343.303 1202.83 342.7C1202.26 342.097 1201.82 341.38 1201.54 340.596C1201.26 339.812 1201.15 338.978 1201.21 338.148C1201.27 337.318 1201.51 336.511 1201.9 335.778C1202.03 335.547 1202.18 335.327 1202.34 335.117L1085.12 240.187C1084.07 241.007 1082.82 241.52 1081.49 241.67C1080.17 241.82 1078.83 241.601 1077.62 241.038C1076.85 240.72 1076.16 240.244 1075.58 239.641C1075.01 239.038 1074.57 238.321 1074.29 237.537C1074.01 236.752 1073.9 235.918 1073.96 235.088C1074.03 234.258 1074.27 233.45 1074.66 232.718C1075.23 231.752 1076.02 230.942 1076.98 230.357C1077.93 229.773 1079.02 229.433 1080.13 229.368L1084.37 147.289C1083.61 147.201 1082.87 146.994 1082.17 146.674C1080.75 146.078 1079.61 144.956 1079 143.542C1078.38 142.128 1078.34 140.531 1078.87 139.085L1027.96 120.275C1026.96 120.403 1025.94 120.317 1024.98 120.022C1024.01 119.726 1023.12 119.229 1022.36 118.563L932.599 182.901C932.953 183.445 933.214 184.043 933.371 184.673C933.545 185.492 933.55 186.337 933.386 187.158C933.222 187.979 932.894 188.758 932.42 189.448C931.946 190.137 931.336 190.724 930.629 191.171C929.921 191.618 929.13 191.916 928.303 192.048C927.056 192.32 925.758 192.249 924.548 191.841C923.338 191.434 922.261 190.706 921.432 189.735L903.88 196.983L806.503 237.189C806.652 237.998 806.637 238.829 806.46 239.633C806.283 240.437 805.947 241.197 805.472 241.869C804.996 242.541 804.392 243.111 803.693 243.546C802.995 243.981 802.216 244.272 801.403 244.402C799.722 244.803 797.951 244.545 796.453 243.681C794.956 242.817 793.847 241.412 793.353 239.755C793.125 238.826 793.136 237.855 793.384 236.932L692.657 203.309C692.177 204.103 691.535 204.787 690.773 205.317C690.012 205.847 689.147 206.211 688.235 206.385L688.22 206.392L693.867 262.908L545.29 275.908C545.196 277.321 544.628 278.661 543.68 279.713C542.732 280.765 541.457 281.468 540.061 281.708C538.535 282.03 536.945 281.851 535.527 281.198L487.527 345.645C488.559 346.464 489.295 347.598 489.62 348.875C489.794 349.694 489.798 350.54 489.635 351.361C489.471 352.182 489.142 352.961 488.667 353.651C488.193 354.34 487.583 354.927 486.876 355.373C486.168 355.82 485.376 356.118 484.549 356.25C482.934 356.587 481.251 356.361 479.781 355.61L396.831 457.875C397.76 458.679 398.419 459.749 398.72 460.94C398.894 461.759 398.899 462.604 398.736 463.425C398.572 464.246 398.244 465.026 397.77 465.715C397.296 466.405 396.686 466.992 395.978 467.438C395.27 467.885 394.479 468.184 393.652 468.315C391.97 468.716 390.199 468.458 388.701 467.594C387.203 466.73 386.093 465.325 385.598 463.668C385.285 462.415 385.413 461.094 385.959 459.924L306.323 417.524C305.334 418.688 303.979 419.482 302.48 419.777C301.006 420.112 299.462 419.954 298.086 419.327C296.709 418.7 295.576 417.64 294.86 416.308L84.2064 475.108L83.9534 474.352C84.1946 475.35 84.1664 476.395 83.8716 477.379C83.5768 478.363 83.0259 479.251 82.2754 479.952L137 541.471C137.638 541.108 138.328 540.847 139.046 540.698C140.728 540.296 142.499 540.554 143.997 541.419C145.494 542.283 146.603 543.688 147.096 545.345C147.27 546.164 147.275 547.009 147.111 547.83C146.947 548.651 146.618 549.43 146.144 550.12C145.67 550.809 145.06 551.395 144.352 551.841C143.644 552.288 142.852 552.585 142.025 552.716C141.021 552.929 139.983 552.924 138.981 552.7C137.979 552.477 137.036 552.041 136.217 551.422L-1.67258 667.501C-1.19962 668.143 -0.864594 668.875 -0.688477 669.652C-0.51236 670.43 -0.499054 671.235 -0.649323 672.018C-0.799591 672.801 -1.11026 673.544 -1.56171 674.201C-2.01315 674.858 -2.59567 675.414 -3.27258 675.835L36.9754 738.335C37.2371 738.244 37.5043 738.17 37.7754 738.114C39.4569 737.713 41.2278 737.971 42.7253 738.834C44.2228 739.698 45.3334 741.101 45.8294 742.757C46.003 743.576 46.008 744.422 45.8443 745.243C45.6806 746.064 45.3516 746.843 44.8772 747.533C44.4028 748.223 43.7931 748.809 43.085 749.256C42.3769 749.703 41.5853 750.001 40.7584 750.132C38.91 750.52 36.9831 750.168 35.3914 749.151L-126.245 892.748C-125.684 893.423 -125.282 894.216 -125.07 895.068C-124.896 895.887 -124.891 896.733 -125.055 897.554C-125.218 898.375 -125.547 899.154 -126.022 899.844C-126.496 900.534 -127.106 901.12 -127.814 901.567C-128.522 902.014 -129.314 902.312 -130.141 902.443C-131.823 902.844 -133.594 902.586 -135.092 901.722C-136.59 900.858 -137.7 899.453 -138.195 897.796C-138.486 896.528 -138.354 895.199 -137.819 894.013C-137.284 892.828 -136.374 891.85 -135.231 891.23L-200.123 763.475C-200.3 763.524 -200.476 763.575 -200.657 763.612C-202.338 764.013 -204.109 763.755 -205.607 762.892C-207.104 762.029 -208.215 760.625 -208.711 758.969C-208.964 757.905 -208.913 756.791 -208.564 755.755C-208.216 754.718 -207.583 753.8 -206.738 753.106L-303.138 630.143C-303.675 630.41 -304.244 630.607 -304.831 630.73C-306.512 631.131 -308.283 630.874 -309.781 630.01C-311.279 629.147 -312.389 627.743 -312.885 626.087C-313.058 625.268 -313.062 624.422 -312.899 623.601C-312.735 622.78 -312.406 622.001 -311.931 621.312C-311.457 620.622 -310.847 620.036 -310.139 619.589C-309.432 619.142 -308.64 618.844 -307.814 618.712C-306.859 618.516 -305.875 618.511 -304.919 618.698L-265.78 517.146C-266.641 516.767 -267.406 516.198 -268.017 515.483C-268.627 514.767 -269.069 513.922 -269.308 513.012C-269.481 512.193 -269.485 511.347 -269.322 510.526C-269.158 509.705 -268.829 508.926 -268.354 508.237C-267.88 507.547 -267.27 506.961 -266.562 506.514C-265.855 506.067 -265.063 505.769 -264.237 505.637C-263.5 505.487 -262.746 505.451 -261.999 505.528L-242.799 433.77C-243.797 433.439 -244.697 432.865 -245.419 432.1C-246.14 431.335 -246.661 430.403 -246.934 429.387C-247.113 428.659 -247.147 427.902 -247.033 427.161C-246.919 426.419 -246.66 425.708 -246.27 425.067L-337.815 363.977C-338.756 364.873 -339.931 365.485 -341.205 365.742C-342.885 366.144 -344.656 365.887 -346.153 365.025C-347.65 364.162 -348.76 362.758 -349.255 361.102C-349.562 359.749 -349.391 358.332 -348.771 357.092C-348.151 355.851 -347.12 354.863 -345.855 354.297L-375.742 281.583L-375.792 281.597C-377.473 281.998 -379.244 281.74 -380.742 280.876C-382.239 280.012 -383.348 278.607 -383.842 276.95C-384.014 276.131 -384.019 275.285 -383.855 274.465C-383.691 273.644 -383.362 272.865 -382.887 272.175C-382.413 271.485 -381.804 270.899 -381.096 270.452C-380.388 270.005 -379.597 269.707 -378.771 269.575C-376.91 269.182 -374.97 269.543 -373.377 270.58L-301.595 199.845C-302.267 199.119 -302.745 198.235 -302.985 197.275C-303.158 196.456 -303.163 195.61 -302.999 194.789C-302.835 193.968 -302.506 193.189 -302.031 192.5C-301.556 191.811 -300.946 191.225 -300.237 190.779C-299.529 190.333 -298.737 190.037 -297.91 189.907C-296.229 189.506 -294.459 189.764 -292.962 190.627C-291.466 191.491 -290.357 192.894 -289.863 194.55C-289.828 194.673 -289.809 194.803 -289.786 194.926L-75.9716 188.76L-75.8446 188.16L-74.9846 188.729L-71.5026 188.629L-73.6106 189.638L28.4574 257.16C29.4015 256.251 30.5857 255.632 31.8704 255.374C33.171 255.09 34.5254 255.181 35.7764 255.636C37.0275 256.091 38.1239 256.891 38.9384 257.944L128.247 216.951C128.166 216.735 128.097 216.514 128.04 216.29C127.867 215.471 127.862 214.626 128.026 213.805C128.19 212.984 128.519 212.205 128.994 211.516C129.468 210.826 130.078 210.241 130.786 209.794C131.493 209.348 132.285 209.05 133.111 208.919C134.643 208.566 136.25 208.749 137.662 209.439C139.075 210.129 140.207 211.283 140.87 212.708L334.013 38.0019C333.436 37.3168 333.023 36.509 332.804 35.6399C332.631 34.8206 332.627 33.9747 332.791 33.1535C332.955 32.3323 333.284 31.5531 333.759 30.8633C334.234 30.1734 334.844 29.5874 335.552 29.1407C336.261 28.694 337.052 28.396 337.879 28.2649C339.561 27.8647 341.332 28.1232 342.829 28.9873C344.326 29.8515 345.435 31.2557 345.929 32.9119C346.233 34.1304 346.123 35.4155 345.614 36.5639L541.747 136.932C542.741 135.725 544.122 134.9 545.655 134.598C547.092 134.301 548.585 134.444 549.939 135.009L600.326 61.1379C599.189 60.3049 598.377 59.1033 598.026 57.7379C597.853 56.9186 597.849 56.0727 598.013 55.2515C598.177 54.4303 598.506 53.6511 598.981 52.9613C599.456 52.2714 600.066 51.6854 600.774 51.2387C601.483 50.792 602.274 50.494 603.101 50.3629C604.286 50.1093 605.515 50.1628 606.673 50.5185C607.831 50.8741 608.879 51.5201 609.716 52.3949L682.423 9.32794C682.209 8.92164 682.044 8.49084 681.932 8.04495C681.758 7.22583 681.753 6.37984 681.916 5.55853C682.08 4.73722 682.409 3.9578 682.883 3.26776C683.358 2.57773 683.968 1.99153 684.676 1.54491C685.384 1.09828 686.176 0.80058 687.003 0.669945C688.685 0.26896 690.456 0.526677 691.954 1.39022C693.452 2.25377 694.562 3.65768 695.057 5.31394C695.116 5.5629 695.159 5.81544 695.184 6.06994L850.944 10.3699C851.203 9.11282 851.831 7.96182 852.75 7.0653C853.668 6.16878 854.833 5.56784 856.096 5.33995C857.778 4.93959 859.55 5.19795 861.047 6.06202C862.545 6.92609 863.655 8.3304 864.151 9.98694C864.399 11.0234 864.357 12.1081 864.03 13.1225C863.703 14.1368 863.103 15.0417 862.297 15.7379L916.146 81.0459C916.99 80.5537 917.926 80.2421 918.896 80.1309C919.866 80.0197 920.848 80.1112 921.781 80.3998C922.714 80.6884 923.576 81.1676 924.314 81.8072C925.052 82.4467 925.648 83.2326 926.066 84.1149L1015.27 57.9199C1015.22 57.7969 1015.19 57.6739 1015.15 57.5439C1014.97 56.7249 1014.97 55.8791 1015.13 55.0582C1015.3 54.2373 1015.63 53.4584 1016.1 52.7689C1016.58 52.0793 1017.19 51.4936 1017.9 51.0473C1018.6 50.601 1019.4 50.3035 1020.22 50.1729C1021.33 49.9351 1022.48 49.9674 1023.58 50.2671C1024.67 50.5668 1025.68 51.125 1026.51 51.8949C1027.74 52.8844 1028.52 54.313 1028.71 55.8749L1143.13 59.0099C1143.24 58.3695 1143.46 57.7529 1143.78 57.1859C1144.69 55.6862 1146.12 54.5777 1147.8 54.076C1149.48 53.5744 1151.29 53.7155 1152.87 54.4719C1154 54.9596 1154.95 55.7759 1155.61 56.8143C1156.26 57.8527 1156.59 59.065 1156.55 60.2929L1175.18 65.0239L1278.54 91.2579C1279.47 89.8075 1280.9 88.7464 1282.56 88.2733C1284.22 87.8003 1285.99 87.9477 1287.55 88.688C1288.32 89.0071 1289.01 89.4841 1289.58 90.088C1290.16 90.6919 1290.6 91.4093 1290.87 92.1939C1291.15 92.9785 1291.26 93.8127 1291.2 94.6426C1291.13 95.4725 1290.9 96.2797 1290.5 97.0119C1290.01 97.8809 1289.33 98.622 1288.5 99.174L1342.67 184.36C1344.48 183.695 1346.48 183.777 1348.24 184.588L1348.25 184.595L1383.53 137.647L1507.34 214.994C1508.39 213.962 1509.72 213.275 1511.17 213.024C1512.62 212.774 1514.11 212.973 1515.44 213.594C1516.81 214.215 1517.92 215.299 1518.58 216.656L1600.83 195.14C1600.62 193.859 1600.85 192.544 1601.49 191.41C1602.4 189.913 1603.83 188.806 1605.51 188.306C1607.19 187.805 1608.99 187.945 1610.57 188.7C1612.03 189.353 1613.19 190.532 1613.81 192L1749.57 161.84C1749.43 160.638 1749.67 159.421 1750.26 158.367C1751.17 156.868 1752.6 155.76 1754.28 155.259C1755.96 154.757 1757.77 154.898 1759.35 155.653C1760.12 155.972 1760.81 156.449 1761.39 157.052C1761.96 157.656 1762.4 158.373 1762.68 159.157C1762.96 159.942 1763.07 160.776 1763.01 161.606C1762.94 162.436 1762.71 163.244 1762.31 163.977C1761.65 165.149 1760.63 166.084 1759.4 166.652L1791.13 246.217C1792.66 245.9 1794.25 246.083 1795.67 246.737C1797.02 247.307 1798.11 248.348 1798.75 249.666C1799.39 250.983 1799.52 252.487 1799.13 253.897L2002.98 332.397L2002.64 333.135C2003.18 332.203 2003.94 331.414 2004.85 330.835C2005.75 330.255 2006.79 329.901 2007.86 329.803L2008.77 250.129C2008.04 250.039 2007.32 249.837 2006.65 249.529C2005.88 249.21 2005.19 248.734 2004.62 248.131C2004.04 247.527 2003.6 246.81 2003.32 246.026C2003.05 245.241 2002.94 244.407 2003 243.577C2003.07 242.748 2003.3 241.941 2003.7 241.209C2004.61 239.709 2006.04 238.601 2007.72 238.1C2009.4 237.599 2011.21 237.741 2012.79 238.499C2013.69 238.9 2014.48 239.509 2015.1 240.275C2015.73 241.042 2016.16 241.945 2016.36 242.91L2204.23 234.41C2204.32 233.664 2204.55 232.943 2204.92 232.287C2205.57 231.186 2206.51 230.288 2207.64 229.693C2208.77 229.097 2210.04 228.828 2211.32 228.916L2224.09 157C2223.82 156.913 2223.57 156.813 2223.32 156.7C2222.55 156.381 2221.85 155.905 2221.28 155.302C2220.71 154.699 2220.27 153.982 2219.99 153.198C2219.71 152.414 2219.6 151.58 2219.66 150.75C2219.72 149.92 2219.96 149.113 2220.35 148.38C2221.26 146.882 2222.69 145.775 2224.37 145.274C2226.05 144.773 2227.86 144.912 2229.44 145.666C2230.26 146.035 2230.99 146.575 2231.59 147.25C2232.19 147.926 2232.63 148.721 2232.9 149.582L2458.39 133.799C2458.44 132.928 2458.69 132.08 2459.11 131.317C2460.02 129.82 2461.45 128.715 2463.13 128.216C2464.81 127.717 2466.61 127.86 2468.19 128.617C2468.96 128.935 2469.66 129.41 2470.23 130.012C2470.8 130.614 2471.24 131.33 2471.52 132.113C2471.8 132.896 2471.91 133.728 2471.85 134.557C2471.79 135.386 2471.55 136.193 2471.16 136.925ZM2406.9 440.841C2407.57 440.601 2408.28 440.457 2408.99 440.416L2420.84 288.804C2420.25 288.696 2419.67 288.515 2419.12 288.263C2418.23 287.853 2417.44 287.253 2416.82 286.505L2338.65 327.931L2406.9 440.841ZM2214.47 556.83C2214.96 555.974 2215.63 555.242 2216.44 554.689L2183.56 501.319L2209.99 566.933L2214.87 563.052C2214.21 562.164 2213.82 561.104 2213.75 560C2213.68 558.896 2213.93 557.795 2214.47 556.83H2214.47ZM2237.53 434.268C2237.19 434.111 2236.87 433.927 2236.57 433.716L2184.09 488.229C2185.17 489.349 2185.77 490.852 2185.76 492.412L2228.95 498.275L2238.61 434.662C2238.24 434.56 2237.88 434.428 2237.53 434.268ZM2243.32 423.1L2282.72 368.995L2237.6 423.213C2238.49 422.81 2239.46 422.592 2240.45 422.573C2241.43 422.553 2242.41 422.733 2243.32 423.1ZM2233.96 427.585L2194.47 475.036L2235.31 432.612C2234.71 431.937 2234.27 431.131 2234.04 430.258C2233.8 429.386 2233.78 428.47 2233.96 427.585ZM2185.51 493.985C2185.38 494.373 2185.22 494.748 2185.03 495.103C2184.54 495.961 2183.87 496.695 2183.05 497.247L2217.96 553.904C2218.8 553.597 2219.68 553.444 2220.56 553.451L2228.71 499.851L2185.51 493.985ZM2180.51 498.33C2179.23 498.598 2177.9 498.519 2176.67 498.101L2078.15 670.375L2078.28 670.944C2078.42 671.035 2078.55 671.136 2078.68 671.244L2208.58 568.05L2180.51 498.33ZM2175.13 497.36C2174.64 497.048 2174.19 496.672 2173.8 496.242L2053.1 565.875L2073.73 669.691C2074.63 669.633 2075.53 669.742 2076.39 670.014L2175.13 497.36ZM2042.14 483.95C2042.83 484.827 2043.25 485.879 2043.38 486.987L2172.34 491.275C2172.46 490.648 2172.67 490.045 2172.98 489.486C2173.05 489.363 2173.14 489.25 2173.21 489.131L2098.72 435.475L2042.14 483.95ZM2145.5 393.235C2145.04 392.652 2144.69 391.987 2144.48 391.274L2060.73 402.153C2060.74 403.16 2060.49 404.153 2060 405.032C2059.93 405.159 2059.85 405.268 2059.77 405.387L2098.63 433.382L2145.5 393.235ZM1898.67 529.345L2011.8 582.045C2012.57 581.027 2013.62 580.253 2014.82 579.816L1991.97 500.423L1898.97 526.252C1899.16 527.29 1899.06 528.361 1898.67 529.345ZM2016.51 579.408C2016.91 579.36 2017.31 579.346 2017.71 579.366L2034.61 493.452C2034.26 493.353 2033.92 493.226 2033.59 493.072C2032.13 492.416 2030.97 491.235 2030.34 489.764L1993.64 499.964L2016.51 579.408ZM2019.41 579.651C2020.63 579.991 2021.73 580.664 2022.58 581.595L2051.18 565.095L2037 493.731C2036.79 493.742 2036.58 493.742 2036.37 493.731L2019.41 579.651ZM2052.76 564.188L2172.88 494.894C2172.56 494.263 2172.35 493.578 2172.28 492.873L2043.31 488.581C2043.2 489.205 2042.98 489.807 2042.67 490.363C2041.81 491.876 2040.38 492.987 2038.7 493.453L2052.76 564.188ZM2051.52 566.788L2023.5 582.947C2023.93 583.786 2024.15 584.717 2024.13 585.659C2024.11 586.602 2023.86 587.525 2023.4 588.347C2022.93 589.19 2022.27 589.913 2021.47 590.46L2035.47 612.746L2071.54 670.173C2071.7 670.106 2071.87 670.053 2072.04 669.997L2051.52 566.788ZM2019.96 591.253C2019.05 591.597 2018.08 591.757 2017.11 591.722C2016.14 591.688 2015.19 591.46 2014.31 591.053C2013.01 590.501 2011.94 589.51 2011.3 588.253C2010.66 586.997 2010.47 585.554 2010.78 584.177L1985.95 602.709L2069.77 671.177C2069.85 671.107 2069.95 671.043 2070.04 670.977L2019.96 591.253ZM2009.77 582.89L1897.9 530.775L1984.64 601.644L2009.77 582.89ZM1898.47 524.728L1991.53 498.881L1964.52 405.041C1963.46 405.165 1962.4 405.059 1961.39 404.732L1896.12 522.167C1897.13 522.783 1897.94 523.672 1898.47 524.73L1898.47 524.728ZM1993.19 498.417L2029.93 488.217C2029.79 487.019 2030.03 485.807 2030.62 484.755C2030.97 484.151 2031.41 483.607 2031.92 483.145L1966.98 404.286C1966.73 404.417 1966.47 404.533 1966.2 404.634L1993.19 498.417ZM2033.63 482.029C2033.97 481.87 2034.33 481.741 2034.69 481.642L2020.12 401.353L1970.32 399.894C1970.21 400.53 1969.99 401.143 1969.67 401.708C1969.34 402.309 1968.9 402.85 1968.39 403.308L2033.63 482.029ZM2021.61 399.803L2047.47 400.559C2047.59 400.162 2047.75 399.779 2047.95 399.417C2048.41 398.593 2049.05 397.885 2049.83 397.347L2011.74 341.447C2011.51 341.547 2011.29 341.637 2011.06 341.721L2021.61 399.803ZM2047.22 402.144L2021.89 401.406L2036.41 481.376C2036.87 481.361 2037.33 481.388 2037.79 481.457L2051.6 408.019C2051.37 407.938 2051.14 407.847 2050.9 407.741C2049.81 407.266 2048.89 406.484 2048.23 405.491C2047.58 404.497 2047.23 403.335 2047.22 402.146V402.144ZM2039.47 481.938C2039.55 481.977 2039.63 482.005 2039.72 482.038C2040.15 482.242 2040.56 482.492 2040.94 482.783L2097.34 434.478L2058.7 406.642C2057.97 407.283 2057.11 407.767 2056.18 408.065C2055.25 408.362 2054.27 408.466 2053.3 408.371L2039.47 481.938ZM2060.48 400.575L2144.23 389.696C2144.21 388.688 2144.47 387.694 2144.96 386.814C2145.21 386.359 2145.52 385.938 2145.89 385.563L2107.71 346.225L2059 398.094C2059.69 398.788 2060.19 399.64 2060.48 400.575ZM2100.02 434.375L2174.28 487.875C2174.94 487.289 2175.71 486.836 2176.54 486.543L2151.77 395.764C2150.45 395.908 2149.11 395.689 2147.91 395.131C2147.48 394.927 2147.07 394.678 2146.68 394.389L2100.02 434.375ZM2178.23 486.153C2179.54 486.01 2180.87 486.227 2182.07 486.782C2182.17 486.831 2182.27 486.891 2182.37 486.94L2294.01 352.795C2293.41 352.288 2292.91 351.674 2292.53 350.985L2157.64 388.6C2157.88 389.912 2157.66 391.27 2157 392.432C2156.21 393.812 2154.95 394.859 2153.45 395.374L2178.23 486.153ZM2157.14 387.075L2291.97 349.475C2291.65 348.103 2291.86 346.664 2292.56 345.44C2292.93 344.765 2293.43 344.166 2294.03 343.675L2264.03 304.808L2156.69 386.321C2156.86 386.562 2157 386.814 2157.14 387.075ZM2311.07 274.397C2310.95 274.907 2310.76 275.399 2310.51 275.859C2310.01 276.733 2309.32 277.479 2308.49 278.038L2337.81 326.538L2415.95 285.13C2415.64 284.457 2415.47 283.73 2415.44 282.989L2311.07 274.397ZM2410.97 281.023L2220.44 237.811L2298.73 269.827C2299.7 268.472 2301.11 267.5 2302.72 267.082C2304.33 266.664 2306.04 266.826 2307.55 267.539C2308.59 267.993 2309.48 268.725 2310.13 269.656C2310.78 270.586 2311.17 271.678 2311.23 272.812L2410.97 281.023ZM2306.96 278.805C2306.29 279.043 2305.59 279.185 2304.89 279.227L2300.09 342.215C2300.63 342.328 2301.15 342.499 2301.65 342.725C2302.53 343.135 2303.32 343.735 2303.95 344.483L2336.31 327.333L2306.96 278.805ZM2303.15 279.114C2302.56 279.008 2301.97 278.826 2301.42 278.573C2300.87 278.313 2300.35 277.981 2299.88 277.585L2265.38 303.785L2295.46 342.761C2296.37 342.323 2297.36 342.085 2298.37 342.061L2303.15 279.114ZM2264.37 302.486L2298.77 276.354C2298.26 275.625 2297.93 274.787 2297.8 273.907C2297.67 273.027 2297.74 272.128 2298.02 271.282L2216.84 238.082C2216.54 238.589 2216.16 239.047 2215.72 239.442L2264.37 302.486ZM2217.68 235.547L2415.9 280.502C2415.97 280.308 2416.06 280.12 2416.16 279.94C2416.2 279.877 2416.24 279.82 2416.28 279.761L2299.01 200.888L2217.4 233.266C2217.65 234 2217.74 234.777 2217.68 235.549L2217.68 235.547ZM2405.18 441.747C2405.25 441.701 2405.32 441.656 2405.38 441.61L2337.14 328.728L2304.81 345.857C2305.26 346.843 2305.42 347.937 2305.28 349.012C2305.13 350.087 2304.69 351.099 2303.99 351.931L2405.18 441.747ZM2403.97 442.893L2302.78 353.075C2301.78 353.801 2300.6 354.25 2299.36 354.375L2298.29 434.039L2402.83 445.087C2402.95 444.63 2403.13 444.189 2403.36 443.776C2403.54 443.464 2403.74 443.169 2403.97 442.894L2403.97 442.893ZM2299.5 502.728C2300.36 503.127 2301.12 503.703 2301.74 504.419L2403.19 449.045C2402.84 448.303 2402.65 447.496 2402.63 446.676L2298.28 435.649L2297.38 502.12C2298.11 502.215 2298.83 502.421 2299.49 502.729L2299.5 502.728ZM2297.63 354.364C2297.01 354.279 2296.4 354.117 2295.82 353.882L2244.81 423.914C2245.57 424.456 2246.2 425.167 2246.64 425.991C2247.08 426.816 2247.32 427.731 2247.35 428.666L2296.56 433.866L2297.63 354.364ZM2293.55 502.654C2294.21 502.365 2294.92 502.177 2295.65 502.099L2296.55 435.466L2247.15 430.246C2247.02 430.703 2246.85 431.143 2246.62 431.557C2246.2 432.304 2245.64 432.959 2244.96 433.483L2293.55 502.654ZM2292.08 503.512L2243.49 434.338C2242.49 434.767 2241.42 434.969 2240.33 434.929L2230.67 498.511L2289.93 506.557C2290.05 506.17 2290.21 505.796 2290.41 505.439C2290.83 504.69 2291.39 504.035 2292.07 503.512H2292.08ZM2223.56 554.119C2224.23 554.427 2224.84 554.843 2225.37 555.349L2290.52 511.249C2289.95 510.311 2289.66 509.229 2289.68 508.131L2230.42 500.085L2222.29 553.663C2222.73 553.776 2223.15 553.929 2223.56 554.12L2223.56 554.119ZM2221.29 565.779C2219.98 565.926 2218.64 565.709 2217.44 565.15C2216.93 564.911 2216.45 564.609 2216.01 564.25L2210.63 568.528L2246.74 658.196L2221.29 565.779ZM2209.23 569.642L2079.82 672.442C2080.36 673.183 2080.72 674.039 2080.87 674.942L2244.87 671.863C2244.96 671.113 2245.19 670.387 2245.56 669.726C2246.22 668.555 2247.24 667.621 2248.46 667.054L2209.23 569.642ZM2080.34 678.398L2166.92 727.315L2245.62 675.46C2245.26 674.838 2245.02 674.156 2244.9 673.446L2080.9 676.532C2080.82 677.181 2080.63 677.811 2080.34 678.398ZM2220.62 751.766L2248.56 678.057L2248.51 678.043C2247.82 677.721 2247.2 677.285 2246.65 676.753L2168.52 728.222L2214 753.922C2214.83 753.025 2215.87 752.355 2217.03 751.977C2218.19 751.6 2219.43 751.527 2220.62 751.766H2220.62ZM2107.47 770.189L2212.49 757.809C2212.49 756.93 2212.7 756.064 2213.09 755.278L2166.99 729.231L2106.89 768.831C2107.14 769.259 2107.33 769.715 2107.47 770.189H2107.47ZM2104 766.249C2104.69 766.571 2105.32 767.008 2105.87 767.539L2165.39 728.324L2080.48 680.349L2100.39 765.602C2101.63 765.504 2102.87 765.726 2104 766.248L2104 766.249ZM2096.19 767.363C2096.91 766.716 2097.76 766.228 2098.69 765.932L2078.72 680.44C2077.67 681.289 2076.39 681.827 2075.05 681.992C2073.71 682.156 2072.35 681.942 2071.12 681.372C2069.96 680.87 2068.98 680.021 2068.32 678.942C2067.67 677.862 2067.36 676.605 2067.44 675.344L1929.27 648.125L2096.19 767.363ZM2067.82 673.79C2067.92 673.536 2068.03 673.29 2068.16 673.052C2068.3 672.815 2068.45 672.589 2068.61 672.374L1984.59 603.734L1927.7 646.186L2067.82 673.79ZM1926.25 645.212L1983.27 602.658L1896.74 531.958C1896.16 532.41 1895.51 532.767 1894.82 533.016L1926.25 645.212ZM1890.04 521.454C1891.51 520.972 1893.1 520.972 1894.57 521.454L1959.84 404.009C1959.32 403.693 1958.84 403.301 1958.44 402.846L1856.56 461.422L1890.04 521.454ZM1956.94 398.154L1873.84 378.675L1849.43 372.956L1805.53 362.664L1805.5 362.706C1804.9 363.776 1804 364.65 1802.91 365.223L1855.76 459.995L1957.51 401.489C1956.99 400.459 1956.8 399.298 1956.95 398.156L1956.94 398.154ZM1788.3 504.215L1885.98 525.102C1886.07 524.884 1886.17 524.673 1886.29 524.469C1886.82 523.53 1887.58 522.739 1888.49 522.169L1855.09 462.269L1787.71 501.009C1788.21 501.998 1788.42 503.112 1788.3 504.215ZM1784.64 498.081C1785.45 498.456 1786.18 498.993 1786.78 499.659L1854.28 460.845L1801.3 365.845C1800.68 366.008 1800.03 366.084 1799.39 366.073L1796.43 390.113L1783.18 497.589C1783.68 497.7 1784.17 497.865 1784.64 498.082L1784.64 498.081ZM1781.46 497.41L1794.56 391.038L1797.67 365.863C1797.24 365.753 1796.82 365.601 1796.42 365.41C1795.32 364.911 1794.39 364.117 1793.72 363.118L1738.2 382.279L1780.28 497.53C1780.67 497.46 1781.06 497.42 1781.46 497.41ZM1547.17 411.729C1547.5 411.722 1547.82 411.736 1548.15 411.771L1564.33 351.746L1575.5 310.313C1575.29 310.24 1575.08 310.155 1574.88 310.06C1574.02 309.678 1573.25 309.104 1572.63 308.381C1572.02 307.658 1571.58 306.806 1571.35 305.888L1528.96 309.396L1547.17 411.729ZM1527.22 309.54L1417.75 318.575C1417.71 319.476 1417.46 320.356 1417.02 321.141C1416.95 321.279 1416.87 321.411 1416.77 321.535L1542.7 413.466C1543.5 412.771 1544.44 412.267 1545.46 411.993L1527.22 309.54ZM1565.8 352.92L1549.85 412.147C1550.05 412.221 1550.26 412.305 1550.46 412.397C1551.29 412.785 1552.04 413.337 1552.65 414.021L1641.38 364.043L1582.05 309.455C1580.62 310.432 1578.9 310.87 1577.18 310.692L1565.8 352.92ZM1675.61 400.747C1675.61 399.782 1675.86 398.833 1676.34 397.991C1676.55 397.604 1676.81 397.242 1677.1 396.912L1642.64 365.205L1553.56 415.375C1553.69 415.667 1553.81 415.967 1553.9 416.275L1675.61 400.747ZM1553.94 419.437L1617.37 442.475L1676.41 403.724C1676.15 403.286 1675.95 402.815 1675.82 402.324L1554.15 417.859C1554.15 418.392 1554.08 418.923 1553.94 419.437H1553.94ZM1678.36 395.812C1679.19 395.27 1680.11 394.901 1681.08 394.727C1682.05 394.553 1683.05 394.578 1684.01 394.8L1712.67 327.981C1712.28 327.466 1711.98 326.892 1711.77 326.281L1644.16 364.35L1678.36 395.812ZM1642.9 363.184L1711.47 324.584C1711.46 324.185 1711.5 323.787 1711.57 323.396L1584.45 306.229C1584.32 306.617 1584.16 306.993 1583.97 307.35C1583.77 307.698 1583.54 308.027 1583.28 308.331L1642.9 363.184ZM1584.69 304.65L1669.26 316.067L1712.1 321.853C1712.14 321.779 1712.16 321.719 1712.2 321.642C1712.53 321.066 1712.94 320.545 1713.43 320.095L1651.11 246.787L1583.55 301.093C1584.31 302.12 1584.71 303.37 1584.69 304.65H1584.69ZM1685.63 395.39C1686.72 395.931 1687.64 396.769 1688.27 397.808L1736.01 381.329L1717.49 330.602C1716.68 330.519 1715.9 330.303 1715.16 329.962C1714.75 329.774 1714.35 329.542 1713.98 329.269L1685.63 395.39ZM1737.64 380.767L1793.01 361.655C1792.67 360.615 1792.64 359.5 1792.91 358.442L1723.97 327.716C1723.43 328.483 1722.73 329.131 1721.93 329.619C1721.13 330.107 1720.24 330.425 1719.31 330.553L1737.64 380.767ZM1724.68 326.261L1793.55 356.945C1794.4 355.542 1795.75 354.508 1797.33 354.045L1778.45 267.175L1723.46 320.538C1724.15 321.298 1724.63 322.228 1724.84 323.234C1725.06 324.239 1725 325.284 1724.68 326.261H1724.68ZM1777.79 498.468C1778.06 498.308 1778.34 498.165 1778.63 498.039L1736.56 382.839L1688.91 399.29C1689.31 400.741 1689.12 402.29 1688.39 403.603C1688.15 404.024 1687.86 404.417 1687.53 404.774L1777.79 498.468ZM1776.01 500.099C1776.16 499.898 1776.32 499.707 1776.5 499.526L1686.25 405.855C1685.22 406.507 1684.05 406.89 1682.83 406.97C1681.62 407.05 1680.4 406.823 1679.3 406.312C1678.6 405.991 1677.97 405.553 1677.42 405.018L1619.29 443.175L1776.01 500.099ZM1503.39 521.299L1771.8 500.289L1617.61 444.275L1502.74 519.675C1503.04 520.18 1503.26 520.726 1503.39 521.296L1503.39 521.299ZM1501.73 518.399L1615.69 443.575L1553.29 420.909C1552.47 422.17 1551.27 423.136 1549.86 423.664C1548.45 424.192 1546.92 424.254 1545.47 423.841L1500.3 517.323C1500.82 517.614 1501.3 517.974 1501.73 518.392L1501.73 518.399ZM1495.2 516.61C1496.36 516.351 1497.56 516.377 1498.71 516.687L1543.88 423.205C1543.18 422.847 1542.55 422.351 1542.04 421.748C1541.54 421.144 1541.15 420.444 1540.92 419.689C1540.68 418.935 1540.6 418.141 1540.68 417.355C1540.76 416.569 1540.99 415.807 1541.37 415.113C1541.45 414.979 1541.53 414.849 1541.61 414.719L1415.69 322.788C1415.24 323.182 1414.75 323.516 1414.21 323.783L1495.2 516.61ZM1404.98 315.54C1405.54 314.537 1406.37 313.707 1407.37 313.14L1390.34 279.897L1315.1 317.059C1315.28 317.492 1315.41 317.947 1315.49 318.412L1404.29 317.612C1404.38 316.881 1404.61 316.175 1404.97 315.533L1404.98 315.54ZM1310.64 344.058C1311.93 344.647 1312.99 345.644 1313.66 346.895L1404.37 319.508C1404.35 319.403 1404.32 319.301 1404.31 319.199L1315.49 319.999C1315.4 320.725 1315.17 321.426 1314.82 322.066C1314.26 323.023 1313.47 323.829 1312.53 324.413C1311.59 324.997 1310.52 325.341 1309.41 325.416L1308.69 343.466C1309.36 343.568 1310.02 343.765 1310.63 344.051L1310.64 344.058ZM1303.47 344.658C1304.5 343.943 1305.7 343.514 1306.95 343.414L1307.67 325.36C1307 325.258 1306.35 325.059 1305.73 324.769C1304.21 324.09 1303.02 322.841 1302.42 321.292L1282.33 325.138L1303.47 344.658ZM1302.77 316.453C1302.83 316.337 1302.91 316.242 1302.97 316.133L1171.44 222.775L1280.87 323.786L1302.07 319.73C1301.96 318.591 1302.21 317.448 1302.77 316.451L1302.77 316.453ZM1214.79 251.535L1304.03 314.867C1304.95 314.049 1306.06 313.485 1307.26 313.232L1294.48 197.598L1168.18 214.555C1168.19 215.573 1167.94 216.577 1167.44 217.466C1167.37 217.578 1167.31 217.68 1167.24 217.782L1214.79 251.535ZM1214.7 338.528L1301.03 348.05C1301.15 347.602 1301.32 347.172 1301.55 346.767C1301.74 346.415 1301.97 346.083 1302.23 345.776L1280.31 325.529L1214.67 338.11C1214.68 338.251 1214.69 338.389 1214.69 338.526L1214.7 338.528ZM1206.59 332.528C1208.08 332.241 1209.62 332.43 1211 333.069C1212.52 333.752 1213.71 335.001 1214.32 336.549L1278.85 324.186L1165.51 219.575C1165.16 219.815 1164.79 220.024 1164.41 220.201L1206.59 332.528ZM1162.77 220.715C1161.28 221.002 1159.73 220.816 1158.35 220.181C1156.98 219.554 1155.86 218.463 1155.2 217.098L1136.84 221.84L1204.05 330.658L1162.77 220.715ZM1091.27 143.973C1091.16 144.167 1091.05 144.355 1090.92 144.535L1157.48 209.642C1158.27 209.125 1159.15 208.77 1160.08 208.598L1153.63 125.18L1091.85 139.85C1092.17 141.248 1091.97 142.718 1091.26 143.97L1091.27 143.973ZM1155.39 211.854C1155.62 211.451 1155.89 211.073 1156.2 210.726L1089.95 145.931L1135.96 220.42L1154.74 215.559C1154.53 214.285 1154.75 212.977 1155.38 211.85L1155.39 211.854ZM1203.5 333.928C1203.63 333.828 1203.76 333.735 1203.89 333.64L1135.12 222.287L1087.38 234.632C1087.59 235.906 1087.36 237.214 1086.72 238.34C1086.59 238.567 1086.45 238.787 1086.29 238.997L1203.5 333.928ZM1081.88 229.44C1082.53 229.542 1083.16 229.736 1083.76 230.016C1085.14 230.637 1086.25 231.727 1086.9 233.092L1134.22 220.856L1088.38 146.634C1087.67 146.974 1086.91 147.196 1086.13 147.291L1081.88 229.44ZM1079.22 138.359V138.352C1079.61 137.662 1080.13 137.051 1080.74 136.552L1045.25 89.0519L1025.89 94.2749L1027.31 108.019C1028.74 108.023 1030.13 108.492 1031.27 109.356C1032.42 110.22 1033.25 111.431 1033.64 112.807C1033.93 114.115 1033.78 115.485 1033.2 116.695C1032.62 117.905 1031.65 118.883 1030.44 119.472L1079.54 137.617L1079.22 138.359ZM1024.19 94.7289L992.115 103.394C992.164 103.685 992.191 103.978 992.196 104.273L1020.91 111.743C1021.35 110.823 1022.01 110.02 1022.82 109.399C1023.64 108.779 1024.58 108.357 1025.59 108.168L1024.19 94.7289ZM1020.52 115.539C1020.33 114.796 1020.3 114.023 1020.43 113.268L997.513 107.299L1020.62 115.841C1020.59 115.739 1020.55 115.644 1020.52 115.539ZM990.516 100.332C990.959 100.783 991.329 101.302 991.61 101.868L1024.02 93.1149L1020.85 62.5749C1020.19 62.4757 1019.54 62.2838 1018.93 62.0049L999.786 87.6589L990.516 100.332ZM1022.6 62.632L1025.72 92.6619L1044.22 87.6619L1025.05 61.9939C1024.28 62.3508 1023.45 62.5672 1022.6 62.6329L1022.6 62.632ZM931.526 181.648L1020.83 117.641L991.646 106.857C991.585 106.973 991.531 107.096 991.474 107.212C990.652 108.571 989.393 109.61 987.903 110.16C986.413 110.71 984.781 110.738 983.273 110.239L931.227 181.406C931.34 181.483 931.432 181.564 931.528 181.648H931.526ZM805.947 235.675L832.878 224.553L920.578 188.344C920.441 188.04 920.329 187.725 920.245 187.402C920.012 186.437 920.031 185.428 920.301 184.473C920.57 183.517 921.081 182.647 921.783 181.946L878.721 140.84L805.173 234.561C805.473 234.902 805.733 235.275 805.947 235.675ZM803.92 233.45L877.502 139.673L814.316 79.3669C813.558 79.8744 812.709 80.2312 811.816 80.4179C811.495 80.4828 811.169 80.5239 810.841 80.5409L802.147 232.583C802.777 232.785 803.374 233.076 803.92 233.447V233.45ZM743.812 77.3119L631.441 80.8749C631.317 82.0271 630.855 83.1168 630.113 84.007L720.333 165.073L805.225 78.4249C804.517 77.68 804.013 76.7648 803.762 75.7679C803.731 75.6519 803.716 75.5319 803.693 75.4089L743.812 77.3119ZM797.001 74.0359L642.965 60.5409L629.565 76.0079C630.418 76.7933 631.023 77.8096 631.308 78.9329C631.335 79.0489 631.354 79.1759 631.377 79.2919L797.001 74.0359ZM808.837 68.3939C810.371 68.0739 811.967 68.2588 813.386 68.9209L824.147 54.5749L696.999 10.4749L805.079 70.563C806.065 69.4527 807.383 68.6916 808.837 68.3939ZM814.81 69.8209C815.833 70.6411 816.562 71.771 816.887 73.0409C816.996 73.479 817.05 73.9287 817.048 74.3799L912.844 85.3369L825.805 55.1489L814.81 69.8209ZM796.21 233.247C796.892 232.833 797.64 232.541 798.421 232.382C799.081 232.243 799.757 232.197 800.429 232.245L809.109 80.4649C808.189 80.3119 807.308 79.9774 806.518 79.4809L721.568 166.181L796.21 233.247ZM693.31 199.017C693.539 199.943 693.528 200.912 693.279 201.833L794.003 235.452C794.256 235.032 794.557 234.643 794.898 234.292L720.41 167.367L691.921 196.451C692.59 197.178 693.068 198.059 693.31 199.017ZM690.649 195.365L719.173 166.256L628.895 85.1409C628.73 85.2569 628.557 85.3729 628.377 85.4749L647.856 123.224L684.649 194.524C684.849 194.461 685.052 194.408 685.256 194.366C687.115 193.977 689.052 194.335 690.647 195.364L690.649 195.365ZM553.555 142.475L589.707 157.984L621.456 85.6559C621.015 85.4338 620.601 85.1624 620.22 84.8469L552.792 137.258C553.221 137.852 553.533 138.523 553.71 139.234C553.978 140.306 553.925 141.433 553.555 142.475ZM591.281 158.659L681.014 197.159C681.55 196.36 682.26 195.693 683.091 195.208L646.067 123.475L626.811 86.1549C626.623 86.2079 626.431 86.2639 626.235 86.3059C625.186 86.5225 624.102 86.5057 623.06 86.257L591.281 158.659ZM545.132 274.325L691.982 261.475L686.492 206.53C685.528 206.504 684.579 206.278 683.706 205.867C682.833 205.456 682.055 204.867 681.421 204.14L544.867 273.54C544.974 273.795 545.062 274.058 545.132 274.325ZM544.061 272.125L680.547 202.767C680.395 202.438 680.273 202.095 680.182 201.744C679.924 200.707 679.966 199.619 680.301 198.605L590.629 160.139L542.191 270.501C542.913 270.919 543.547 271.471 544.061 272.128V272.125ZM480.917 344.396C481.128 344.333 481.347 344.269 481.566 344.224C483.094 343.906 484.683 344.086 486.1 344.737L534.1 280.29C533.068 279.469 532.334 278.334 532.008 277.056C531.816 276.279 531.791 275.47 531.935 274.683L435.16 250.875C434.623 252.04 433.745 253.014 432.642 253.669L480.917 344.396ZM302.641 311.069L253.671 283.327L224.583 330.244C225.554 330.83 226.351 331.665 226.89 332.662L301.052 315.962C300.924 315.079 301.001 314.179 301.276 313.33C301.552 312.482 302.019 311.708 302.641 311.069ZM304.004 309.979C305.094 309.327 306.335 308.972 307.604 308.949L283.318 241.796C282.076 242.018 280.797 241.914 279.606 241.496L254.53 281.948L304.004 309.979ZM314.415 315.642L413.115 335.415L427.047 254.443C425.754 254.102 424.589 253.388 423.699 252.39L351.032 292.975L314.208 313.528C314.231 313.605 314.254 313.672 314.273 313.75C314.426 314.368 314.474 315.008 314.415 315.642ZM422.798 251.042C422.62 250.678 422.481 250.296 422.383 249.903C422.287 249.528 422.233 249.144 422.222 248.757L338.422 241.533L312.799 311.075C313.08 311.371 313.33 311.694 313.548 312.038L422.798 251.042ZM336.647 241.375L288.583 237.227C288.322 238.134 287.861 238.971 287.235 239.677C286.609 240.383 285.833 240.94 284.963 241.308L309.509 309.175C310.169 309.34 310.8 309.602 311.382 309.952L336.647 241.375ZM285.999 230.765L368.338 147.917C367.966 147.517 367.65 147.069 367.397 146.585L302.81 165.946L284.579 230.046C285.079 230.229 285.556 230.47 285.999 230.765ZM287.262 231.855C287.917 232.575 288.384 233.445 288.621 234.389C288.723 234.805 288.778 235.23 288.786 235.658L337.219 239.83L370.519 149.47C370.212 149.324 369.913 149.161 369.624 148.981L287.262 231.855ZM338.993 239.986L422.384 247.171C422.802 245.579 423.835 244.219 425.256 243.389L404.587 204.42L375.605 149.775C375.394 149.838 375.179 149.895 374.956 149.94C374.034 150.13 373.083 150.142 372.156 149.975L338.993 239.986ZM406.533 204.462L426.811 242.689C427.022 242.629 427.233 242.566 427.456 242.524C428.418 242.321 429.41 242.316 430.373 242.511C431.337 242.705 432.25 243.095 433.056 243.656L463.069 216.256L377.931 148.54C377.686 148.739 377.427 148.92 377.155 149.081L406.533 204.462ZM434.278 244.784C434.866 245.472 435.287 246.286 435.506 247.164C435.682 247.879 435.716 248.622 435.606 249.35L532.437 273.158C532.641 272.75 532.89 272.365 533.178 272.012L464.378 217.292L434.278 244.784ZM479.358 345.095L431.09 254.375C430.875 254.441 430.656 254.496 430.434 254.54C429.885 254.652 429.325 254.7 428.764 254.684L414.813 335.754L476.729 348.154C477.247 346.874 478.171 345.799 479.358 345.095ZM395.441 456.93L478.383 354.667C477.458 353.86 476.799 352.791 476.494 351.602C476.341 350.981 476.294 350.339 476.356 349.702L414.547 337.323L394.055 456.392C394.535 456.523 394.999 456.704 395.441 456.93ZM390.669 456.294C391.219 456.182 391.779 456.134 392.339 456.15L412.847 336.986L314.047 317.192C313.554 318.41 312.694 319.445 311.586 320.152L389.829 456.529C390.105 456.434 390.385 456.355 390.669 456.293V456.294ZM387.521 457.848C387.764 457.634 388.022 457.438 388.293 457.261L310.047 320.875C309.771 320.973 309.489 321.053 309.202 321.114C308.859 321.182 308.512 321.227 308.162 321.248L303.118 395.302L387.521 457.848ZM307.547 412.396C307.86 413.65 307.734 414.974 307.19 416.147L382.864 456.438L302.987 397.246L302.269 407.714C303.507 407.902 304.664 408.444 305.6 409.275C306.537 410.106 307.213 411.19 307.547 412.396ZM306.426 321.161C305.371 320.989 304.374 320.565 303.517 319.926C302.66 319.286 301.97 318.45 301.504 317.488L227.447 334.163C227.613 334.921 227.622 335.705 227.473 336.467C227.324 337.228 227.022 337.952 226.583 338.592L301.466 394.075L306.426 321.161ZM297.059 408.761C298.096 408.078 299.297 407.686 300.537 407.626L301.328 396.026L230.038 343.204L297.059 408.761ZM83.7024 473.581L294.364 414.781C294.207 413.903 294.255 413.001 294.505 412.144C294.755 411.288 295.2 410.502 295.804 409.846L224.782 340.375C223.549 341.177 222.099 341.582 220.629 341.534C219.158 341.487 217.738 340.989 216.559 340.108L82.3664 471.563C82.9423 472.139 83.3966 472.826 83.7024 473.581ZM215.372 338.951C215.207 338.731 215.056 338.501 214.919 338.262L111.819 383.101L74.4474 399.352C74.5084 399.531 74.5664 399.707 74.6124 399.893C74.7842 400.704 74.7905 401.542 74.6309 402.356C74.4712 403.17 74.1489 403.943 73.6832 404.629C73.2175 405.316 72.6181 405.901 71.9209 406.35C71.2236 406.799 70.4429 407.103 69.6254 407.243L76.9654 469.563C78.3898 469.475 79.808 469.814 81.0384 470.537L215.372 338.951ZM214.524 333.292L108.134 291.575L70.9474 395.699C72.0509 396.174 73.0031 396.942 73.7004 397.92L150.872 364.358L173.534 354.509L214.302 336.775L214.29 336.733C214.007 335.59 214.089 334.386 214.524 333.292ZM-90.8036 258.261L-202.588 254.725C-202.607 254.825 -202.63 254.932 -202.657 255.025L-108.857 286.851C-108.377 286.042 -107.732 285.345 -106.963 284.804C-106.194 284.264 -105.319 283.893 -104.396 283.716C-102.97 283.395 -101.48 283.533 -100.137 284.108C-98.7948 284.684 -97.668 285.668 -96.9176 286.922L-90.8036 258.261ZM-95.2416 287.314L26.6474 261.966L-89.0526 258.314L-95.2416 287.314ZM1.82043 447.52L21.7204 433.312L-45.0166 380.564C-45.3649 380.846 -45.7389 381.094 -46.1336 381.306L-5.62057 445.584C-5.38159 445.503 -5.13818 445.437 -4.89157 445.384C-3.68369 445.123 -2.42862 445.183 -1.2511 445.558C-0.0735779 445.933 0.985352 446.609 1.82043 447.52ZM-3.85257 525.848L134.071 544.998C134.21 544.567 134.397 544.153 134.628 543.764L1.50241 455.619C0.558411 456.528 -0.625824 457.147 -1.91058 457.405C-2.15259 457.458 -2.39859 457.493 -2.63959 457.521L-3.85257 525.848ZM3.17242 452.712L71.2154 473.286C71.3116 473.079 71.4204 472.879 71.5414 472.686L23.0664 434.374L2.73843 448.875C3.32639 450.065 3.47852 451.423 3.16843 452.714L3.17242 452.712ZM-164.574 546.091C-165.549 546.115 -166.518 545.936 -167.42 545.565C-168.323 545.194 -169.138 544.639 -169.814 543.936L-211.103 568.659L-156.62 630.139C-156.077 629.836 -155.498 629.606 -154.896 629.454L-164.574 546.091ZM-155.387 610.246L-158.562 542.421C-158.987 543.269 -159.593 544.015 -160.335 544.607C-161.077 545.199 -161.939 545.622 -162.862 545.848L-155.387 610.246ZM-166.198 533.922C-165.83 533.845 -165.456 533.799 -165.081 533.785L-162.828 461.45C-164.444 461.224 -165.928 460.435 -167.02 459.221L-204.153 479.915L-167.298 534.249C-166.941 534.11 -166.573 534 -166.198 533.922ZM-163.353 533.897C-162.424 534.061 -161.541 534.417 -160.759 534.944C-159.977 535.471 -159.315 536.156 -158.815 536.955L-161.598 477.598L-163.353 533.897ZM-152.761 629.231C-151.937 629.265 -151.125 629.441 -150.361 629.751L-73.2736 522.286C-74.3462 521.459 -75.1122 520.297 -75.4506 518.986C-75.6312 518.256 -75.6648 517.497 -75.5495 516.753C-75.4341 516.009 -75.1721 515.296 -74.7786 514.655L-156.9 459.615C-157.838 460.509 -159.011 461.12 -160.282 461.376C-160.393 461.401 -160.509 461.415 -160.624 461.432L-152.761 629.231ZM-13.9846 670.337L-95.0726 650.452L-103.235 690.521C-102.345 690.771 -101.519 691.207 -100.81 691.8C-100.102 692.392 -99.5265 693.128 -99.1226 693.959L-13.8926 672.028C-14.0087 671.473 -14.0397 670.903 -13.9846 670.338V670.337ZM-96.7526 650.045L-146.887 637.745C-147.285 638.615 -147.879 639.381 -148.622 639.984L-108.508 690.954C-107.401 690.405 -106.171 690.153 -104.938 690.223L-96.7526 650.045ZM-146.527 634.016C-146.347 634.735 -146.313 635.483 -146.427 636.216L-96.4266 648.477L-70.9626 523.477C-71.2566 523.389 -71.5451 523.283 -71.8266 523.161L-148.884 630.575C-147.717 631.409 -146.882 632.627 -146.527 634.016ZM-61.0086 453.636L-155.08 455.995C-155.178 456.822 -155.45 457.619 -155.88 458.333L-73.7706 513.37C-72.8292 512.477 -71.656 511.867 -70.3846 511.609C-69.9044 511.511 -69.4156 511.462 -68.9256 511.461L-61.0086 453.636ZM-67.2086 511.657C-66.4489 511.837 -65.7249 512.144 -65.0666 512.564L-8.52557 455.394C-9.22195 454.653 -9.71848 453.747 -9.96857 452.761C-9.99957 452.627 -10.0186 452.49 -10.0456 452.353L-59.2526 453.59L-67.2086 511.657ZM-157.026 451.01L-55.3156 379.075C-55.6576 378.538 -55.9106 377.95 -56.0646 377.332C-56.2623 376.535 -56.2853 375.704 -56.1322 374.897C-55.9791 374.091 -55.6535 373.326 -55.1776 372.657L-115.139 326.708L-158.888 449.808C-158.204 450.102 -157.575 450.509 -157.026 451.01ZM-54.0596 371.445C-53.9056 371.315 -53.7486 371.192 -53.5796 371.072L-100.374 295.423C-100.713 295.554 -101.062 295.658 -101.418 295.732C-102.317 295.918 -103.242 295.935 -104.148 295.781L-114.563 325.087L-54.0596 371.445ZM-54.2516 380.328L-155.963 452.262C-155.619 452.798 -155.365 453.387 -155.211 454.005C-155.176 454.139 -155.157 454.272 -155.134 454.405L-60.7896 452.039L-51.1896 381.926C-52.3296 381.662 -53.3836 381.112 -54.2526 380.328H-54.2516ZM-59.0386 451.998L-10.0916 450.768C-9.97522 449.85 -9.6514 448.97 -9.14462 448.195C-8.63785 447.421 -7.9614 446.771 -7.16656 446.297L-47.7526 381.91C-47.8406 381.928 -47.9256 381.956 -48.0176 381.977C-48.4988 382.077 -48.989 382.128 -49.4806 382.128L-59.0386 451.998ZM-7.23859 456.452L-63.7756 513.622C-63.0802 514.362 -62.5847 515.267 -62.3356 516.251C-62.2142 516.741 -62.16 517.246 -62.1746 517.751L-5.58759 525.607L-4.37857 457.491C-5.3945 457.354 -6.36896 457 -7.23557 456.452H-7.23859ZM-62.4316 519.317C-62.7022 520.14 -63.1398 520.899 -63.7171 521.546C-64.2944 522.193 -64.9989 522.713 -65.7866 523.075L-8.88657 664.907C-8.85156 664.9 -8.8176 664.886 -8.78659 664.879C-8.54681 664.828 -8.30444 664.79 -8.06058 664.766L-5.61859 527.208L-62.4316 519.317ZM-67.4106 523.627C-68.0213 523.754 -68.6458 523.801 -69.2686 523.768L-94.7526 648.888L-13.6076 668.788C-13.0125 667.34 -11.9056 666.161 -10.4976 665.477L-67.4106 523.627ZM-12.7696 674.465L-195.77 755.654C-195.7 755.845 -195.64 756.04 -195.59 756.237C-195.575 756.307 -195.563 756.374 -195.552 756.444L-50.9206 748.419L-10.9676 676.042C-11.6603 675.632 -12.2707 675.097 -12.7676 674.464L-12.7696 674.465ZM-16.4546 674.335L-98.6546 695.489C-98.4551 697.084 -98.8816 698.694 -99.8444 699.98C-100.807 701.267 -102.231 702.13 -103.818 702.389C-104.971 702.638 -106.168 702.596 -107.301 702.266C-108.433 701.937 -109.466 701.33 -110.306 700.501L-192.361 752.381L-16.4546 674.335ZM-109.91 691.885L-150.059 640.875C-151.468 641.536 -153.055 641.715 -154.577 641.385L-167.422 673.385L-111.207 693.425C-110.86 692.845 -110.422 692.325 -109.91 691.885ZM-156.201 640.838C-157.043 640.454 -157.789 639.887 -158.386 639.18C-158.983 638.472 -159.415 637.641 -159.652 636.746C-159.733 636.406 -159.783 636.058 -159.802 635.709L-299.738 625.975L-299.796 626.193L-169.036 672.807L-156.201 640.838ZM-299.761 623.354C-299.677 623.694 -299.627 624.041 -299.611 624.391L-159.675 634.128C-159.407 632.986 -158.812 631.946 -157.963 631.137L-212.563 569.531L-300.269 622.04C-300.047 622.456 -299.876 622.897 -299.761 623.354ZM-212.201 567.421L-170.763 542.608C-170.983 542.191 -171.154 541.75 -171.27 541.293C-171.471 540.493 -171.493 539.659 -171.335 538.85L-256.653 514.237C-256.966 514.852 -257.379 515.412 -257.874 515.893L-212.201 567.421ZM-256.184 510.282C-255.985 511.083 -255.965 511.919 -256.123 512.729L-170.805 537.342C-170.338 536.422 -169.651 535.631 -168.805 535.042L-205.632 480.741L-256.599 509.15C-256.421 509.512 -256.282 509.892 -256.184 510.283V510.282ZM-205.068 478.568L-167.922 457.868C-168.098 457.505 -168.235 457.125 -168.333 456.733C-168.561 455.816 -168.554 454.856 -168.314 453.942L-234.449 430.932C-234.877 431.656 -235.446 432.287 -236.123 432.788L-205.068 478.568ZM-233.811 426.656C-233.586 427.574 -233.593 428.533 -233.834 429.447L-171.542 451.121L-237.404 416.307L-238.444 422.121C-237.338 422.397 -236.326 422.963 -235.511 423.76C-234.697 424.557 -234.109 425.557 -233.81 426.657L-233.811 426.656ZM-167.119 451.625C-166.301 450.658 -165.226 449.943 -164.019 449.562L-208.442 260.229L-208.942 259.874C-209.111 259.881 -209.28 259.881 -209.453 259.874L-237.104 414.636L-167.119 451.625ZM-162.324 449.235C-161.725 449.186 -161.123 449.212 -160.531 449.312L-116.571 325.612L-204.588 258.175C-205.252 258.751 -206.021 259.194 -206.853 259.481L-162.324 449.235ZM-115.995 323.99L-105.795 295.29C-106.688 294.92 -107.485 294.35 -108.123 293.623C-108.761 292.896 -109.223 292.031 -109.473 291.097C-109.693 290.193 -109.689 289.25 -109.461 288.348L-135.681 279.448L-203.237 256.528C-203.318 256.669 -203.402 256.813 -203.498 256.95L-115.995 323.99ZM-98.8646 294.639L-52.0406 370.275C-51.699 370.147 -51.3488 370.044 -50.9926 369.966C-49.3729 369.629 -47.6865 369.854 -46.2126 370.606L-25.2016 341.392L-97.9736 293.917C-98.249 294.183 -98.5471 294.425 -98.8646 294.639ZM-44.8186 371.547C-43.8966 372.351 -43.2407 373.417 -42.9376 374.602C-42.7817 375.254 -42.7388 375.928 -42.8106 376.595L61.7564 399.088C61.8613 398.837 61.9833 398.594 62.1214 398.36L-23.7936 342.315L-44.8186 371.547ZM61.4914 402.621C61.3332 401.976 61.2878 401.309 61.3574 400.649L-43.3426 378.44C-43.4964 378.763 -43.6788 379.071 -43.8876 379.361L23.1224 432.32L62.2614 404.389C61.9084 403.846 61.6478 403.249 61.4904 402.621H61.4914ZM24.4554 433.375L72.5734 471.405C73.3404 470.69 74.2609 470.159 75.2644 469.855L67.9084 407.408C66.2163 407.385 64.5891 406.753 63.3244 405.629L24.4554 433.375ZM135.647 542.46L80.9274 480.942C80.2904 481.306 79.5999 481.567 78.8814 481.715C77.2 482.116 75.4286 481.859 73.9309 480.995C72.4333 480.132 71.3228 478.728 70.8274 477.072C70.6437 476.334 70.6138 475.565 70.7394 474.815L2.58942 454.206L2.50842 454.329L135.633 542.475L135.647 542.46ZM-2.80557 666.299L135.038 550.25C134.535 549.604 134.172 548.859 133.975 548.064C133.855 547.573 133.802 547.069 133.818 546.564L-3.88159 527.445L-6.31558 664.792C-5.02921 664.962 -3.81461 665.483 -2.80557 666.299ZM35.4274 739.066L-4.79358 676.605C-5.11981 676.725 -5.45395 676.823 -5.79358 676.897C-6.99158 677.146 -8.23312 677.088 -9.40259 676.728L-48.9096 748.31L32.5544 743.793C32.623 742.833 32.9194 741.904 33.419 741.082C33.9187 740.26 34.6072 739.569 35.4274 739.066ZM-127.447 891.605L34.1104 748.075C33.4298 747.345 32.9463 746.453 32.7054 745.484C32.6934 745.445 32.6904 745.407 32.6824 745.372L-49.8176 749.949L-127.853 891.342C-127.716 891.426 -127.577 891.514 -127.447 891.605ZM-133.659 890.557C-133.482 890.511 -133.31 890.457 -133.125 890.42C-131.886 890.161 -130.601 890.23 -129.397 890.62L-51.8176 750.056L-195.436 758.026C-195.527 759.016 -195.859 759.969 -196.402 760.802C-196.945 761.635 -197.684 762.323 -198.553 762.807L-133.659 890.557ZM-197.148 753.481L-111.285 699.193C-111.545 698.738 -111.742 698.249 -111.872 697.741C-112.1 696.805 -112.088 695.827 -111.837 694.897L-168.021 674.875L-199.037 752.145C-198.334 752.478 -197.695 752.93 -197.148 753.481ZM-205.337 752.181C-204.796 751.916 -204.225 751.719 -203.637 751.594C-202.654 751.39 -201.639 751.393 -200.658 751.601L-169.627 674.301L-300.425 627.675C-300.775 628.256 -301.217 628.777 -301.734 629.218L-205.337 752.181ZM-264.153 517.668L-303.285 619.22C-302.504 619.581 -301.801 620.088 -301.212 620.714L-213.66 568.293L-259.218 516.888C-259.854 517.249 -260.543 517.508 -261.26 517.658C-262.214 517.855 -263.197 517.858 -264.153 517.668ZM-260.322 505.899C-259.235 506.279 -258.265 506.931 -257.504 507.794L-206.553 479.395L-237.591 433.631C-238.01 433.806 -238.445 433.94 -238.891 434.031C-239.625 434.183 -240.379 434.221 -241.125 434.143L-260.322 505.899ZM-245.262 423.782C-244.32 422.884 -243.143 422.271 -241.868 422.014C-241.305 421.899 -240.73 421.85 -240.156 421.87L-239.012 415.458L-329.026 367.875L-245.262 423.782ZM-336.492 362.095L-238.712 413.785L-211.16 259.618C-212.086 259.364 -212.95 258.922 -213.698 258.318L-337.098 356.324C-336.648 356.934 -336.321 357.627 -336.138 358.363C-335.825 359.611 -335.948 360.928 -336.489 362.095H-336.492ZM-338.231 355.131L-214.831 257.131C-215.216 256.594 -215.51 255.998 -215.702 255.366L-316.008 268.414L-340.19 354.022C-339.478 354.28 -338.815 354.654 -338.228 355.131H-338.231ZM-374.126 281.018L-344.239 353.732L-344.189 353.725C-343.426 353.568 -342.643 353.534 -341.87 353.625L-317.87 268.657L-370.553 275.515C-370.563 276.677 -370.904 277.811 -371.536 278.786C-372.168 279.761 -373.065 280.535 -374.122 281.018H-374.126ZM-300.326 200.925L-372.108 271.646C-371.509 272.307 -371.065 273.092 -370.808 273.946L-317.4 266.997L-298.934 201.629C-299.422 201.447 -299.888 201.21 -300.325 200.925H-300.326ZM-294.932 201.92C-295.695 202.079 -296.48 202.113 -297.255 202.02L-315.54 266.755L-217.165 253.955L-291.719 200.307C-292.626 201.121 -293.735 201.678 -294.931 201.92H-294.932ZM-289.732 196.51C-289.83 197.42 -290.144 198.294 -290.649 199.058L-215.884 252.858C-215.65 251.576 -215.03 250.397 -214.108 249.478C-213.185 248.559 -212.003 247.943 -210.721 247.715C-209.439 247.433 -208.105 247.516 -206.868 247.952C-205.631 248.389 -204.541 249.163 -203.721 250.186L-79.0106 190.429L-289.732 196.51ZM-202.918 251.593C-202.816 251.841 -202.732 252.096 -202.665 252.356C-202.602 252.614 -202.558 252.876 -202.534 253.14L-90.4656 256.683L-76.4526 190.999L-202.918 251.593ZM-74.6636 190.904L-88.7106 256.735L26.7204 260.38C26.848 259.699 27.0937 259.046 27.4464 258.45L-74.6636 190.904ZM27.0474 263.512L-96.2126 289.148C-96.0892 290.355 -96.357 291.57 -96.9766 292.614L-24.2526 340.062L28.9674 266.051C28.1144 265.389 27.452 264.513 27.0474 263.512ZM30.4104 266.925L-22.8406 340.982L63.1144 397.066C63.8531 396.345 64.7459 395.802 65.7254 395.477L33.9954 267.513C32.771 267.622 31.5388 267.42 30.4134 266.926L30.4104 266.925ZM35.6774 267.164L67.4184 395.122C68.0464 395.068 68.6787 395.097 69.2994 395.206L106.537 290.948L39.1474 264.514C38.3258 265.765 37.1033 266.7 35.6804 267.165L35.6774 267.164ZM129.022 218.375L39.7114 259.362C39.7924 259.583 39.8654 259.801 39.9224 260.023C40.173 261.028 40.1426 262.082 39.8344 263.071L107.078 289.435L131.701 220.485C130.64 220.028 129.716 219.3 129.022 218.375ZM136.086 220.938C135.184 221.127 134.254 221.142 133.345 220.984L108.676 290.067L215.315 331.875C215.687 331.383 216.127 330.945 216.62 330.575L202.162 310.451L137.537 220.466C137.071 220.672 136.585 220.829 136.086 220.934V220.938ZM138.986 219.599L202.947 308.668L218.092 329.752C218.502 329.58 218.928 329.448 219.363 329.358C220.58 329.109 221.84 329.173 223.025 329.544L252.194 282.487L139.81 218.81C139.561 219.097 139.284 219.36 138.984 219.594L138.986 219.599ZM140.721 217.469L253.054 281.114L278.096 240.729C276.808 239.894 275.88 238.606 275.496 237.119C275.385 236.663 275.331 236.196 275.335 235.727L141.057 216.648C140.967 216.929 140.854 217.202 140.719 217.464L140.721 217.469ZM141.321 215.082L275.563 234.152C275.922 233.034 276.577 232.035 277.458 231.26C278.34 230.485 279.415 229.964 280.569 229.752C281.335 229.591 282.122 229.558 282.899 229.652L300.854 166.538L141.291 214.353C141.317 214.593 141.326 214.834 141.318 215.075L141.321 215.082ZM335.226 39.1339L144.382 211.759L301.371 164.702L336.847 39.9919C336.274 39.774 335.729 39.4858 335.226 39.1339ZM338.526 40.3819L303.332 164.118L366.864 145.075C366.606 143.658 366.862 142.195 367.584 140.949C368.307 139.703 369.449 138.755 370.807 138.275L340.359 40.3679C339.751 40.4499 339.134 40.4546 338.524 40.3819H338.526ZM344.768 37.9459C344.043 38.8346 343.1 39.5202 342.031 39.9359L372.478 137.847C374.097 137.576 375.759 137.906 377.15 138.777C378.541 139.647 379.565 140.997 380.029 142.571C380.065 142.716 380.093 142.862 380.113 143.01L540.461 139.941C540.527 139.382 540.677 138.835 540.906 138.321L344.768 37.9459ZM540.587 141.975C540.549 141.824 540.526 141.675 540.499 141.529L380.154 144.595C380.034 145.586 379.66 146.529 379.068 147.333L464.302 215.133L541.815 144.363C541.228 143.672 540.808 142.855 540.587 141.975ZM543.032 145.483L465.615 216.169L534.39 270.875C535.191 270.292 536.107 269.887 537.077 269.687C537.55 269.592 538.031 269.542 538.513 269.536L545.913 146.664C544.876 146.491 543.892 146.087 543.032 145.481V145.483ZM548.632 146.615C548.305 146.684 547.973 146.728 547.638 146.745L540.238 269.733C540.365 269.761 540.488 269.796 540.614 269.833L589.055 159.468L552.819 143.917C551.823 145.319 550.326 146.284 548.637 146.613L548.632 146.615ZM607.979 61.7029C607.382 62.0213 606.742 62.252 606.079 62.3879C604.641 62.6854 603.147 62.5421 601.791 61.9769L551.404 135.851C551.492 135.918 551.581 135.981 551.661 136.051L619.093 83.6399C618.663 83.0429 618.352 82.3686 618.176 81.6539C617.93 80.6281 617.967 79.5546 618.284 78.5483C618.601 77.5421 619.186 76.6411 619.976 75.9419L607.979 61.7029ZM609.35 60.7259L621.35 74.9729C621.948 74.6549 622.588 74.4243 623.25 74.2879C624.936 73.9354 626.692 74.196 628.202 75.0229L640.902 60.3579L611.147 57.7539C610.856 58.8988 610.232 59.932 609.355 60.7239L609.35 60.7259ZM683.366 10.6629L610.664 53.7289C610.88 54.1359 611.048 54.5664 611.164 55.0119C611.257 55.3897 611.31 55.7762 611.321 56.1649L642.19 58.8749L683.682 10.9749C683.574 10.8689 683.467 10.7629 683.371 10.6609L683.366 10.6629ZM689.988 12.6879C688.301 13.0425 686.543 12.7844 685.028 11.9599L644.238 59.0599L803.764 73.0359C803.864 72.651 804 72.2766 804.171 71.9179L693.747 10.5239C692.765 11.6346 691.447 12.3938 689.993 12.6859L689.988 12.6879ZM851.027 12.7159C850.964 12.4679 850.922 12.215 850.901 11.9599L695.136 7.65995C695.112 7.81052 695.079 7.95946 695.036 8.10595L825.148 53.2329L853.104 15.9329C852.082 15.1142 851.354 13.9839 851.032 12.7139L851.027 12.7159ZM860.92 16.7059C860.34 17.0099 859.719 17.231 859.078 17.3629C857.545 17.685 855.95 17.5001 854.532 16.8359L826.814 53.8079L913.542 83.8909C913.851 83.2107 914.281 82.5926 914.812 82.0669L860.92 16.7059ZM913.193 87.6129C913.139 87.3999 913.097 87.1839 913.069 86.966L816.833 75.9529C816.585 76.8091 816.151 77.5999 815.562 78.2689L878.526 138.36L915.611 91.0989C914.414 90.2635 913.558 89.0256 913.198 87.6109L913.193 87.6129ZM919.48 92.3969C918.669 92.3642 917.869 92.198 917.111 91.9049L879.747 139.526L923.097 180.899C923.781 180.483 924.532 180.188 925.316 180.027C925.613 179.966 925.914 179.925 926.216 179.904L919.48 92.3969ZM925.927 88.6779C925.477 89.5966 924.82 90.398 924.007 91.0185C923.194 91.639 922.247 92.0617 921.242 92.2529L921.204 92.2599L927.953 179.96C928.589 180.067 929.208 180.253 929.797 180.515L981.711 109.527C980.519 108.847 979.601 107.774 979.114 106.492C978.626 105.209 978.6 103.797 979.039 102.497L925.927 88.6779ZM926.579 85.6339L926.314 84.882C926.499 85.6248 926.531 86.3976 926.406 87.1529L979.814 101.053C980.796 99.7483 982.197 98.8216 983.781 98.4291C985.366 98.0366 987.038 98.2022 988.514 98.8979C988.711 98.9862 988.902 99.0864 989.086 99.1979L998.786 86.1889L1017.28 60.9009C1017.02 60.6667 1016.78 60.4115 1016.56 60.1379C1016.34 59.9062 1016.14 59.657 1015.97 59.3929L926.579 85.6339ZM1143.08 60.6029L1028.66 57.4649C1028.55 58.1048 1028.33 58.7213 1028.01 59.2889C1027.62 59.982 1027.1 60.595 1026.49 61.0959L1045.98 87.1959L1143.14 60.9619C1143.11 60.8359 1143.1 60.7199 1143.08 60.6009L1143.08 60.6029ZM1143.62 62.4839L1047.01 88.5749L1082.18 135.653C1083.14 135.21 1084.19 134.981 1085.24 134.981C1086.3 134.981 1087.35 135.21 1088.31 135.653L1088.34 135.667L1144.65 64.0039C1144.23 63.5525 1143.89 63.0392 1143.62 62.4819L1143.62 62.4839ZM1149.06 66.1359C1148.26 66.0576 1147.47 65.845 1146.74 65.507C1146.47 65.3781 1146.21 65.2314 1145.96 65.0679L1089.77 136.575C1090.37 137.07 1090.87 137.67 1091.25 138.347L1153.5 123.566L1149.06 66.1359ZM1249.32 85.4969L1156.23 61.8749C1156.12 62.1913 1155.98 62.4979 1155.82 62.7919C1155.3 63.6953 1154.57 64.4648 1153.7 65.0395C1152.83 65.6143 1151.84 65.9783 1150.8 66.1029L1155.21 123.161L1277.73 94.0609C1277.74 93.6215 1277.8 93.1847 1277.92 92.7609L1249.32 85.4969ZM1277.92 95.6659L1155.34 124.775L1161.8 208.488C1162.73 208.533 1163.63 208.756 1164.47 209.145C1164.76 209.283 1165.05 209.441 1165.32 209.619L1278.67 97.3749C1278.33 96.8483 1278.08 96.2707 1277.92 95.6639L1277.92 95.6659ZM1283.73 100.348C1282.93 100.27 1282.15 100.058 1281.41 99.7219C1280.81 99.441 1280.26 99.0778 1279.76 98.6429L1166.6 210.694C1167.2 211.353 1167.64 212.134 1167.91 212.982L1294.31 196.011L1283.73 100.348ZM1286.98 99.9479C1286.49 100.122 1285.99 100.246 1285.48 100.317L1296.02 195.781L1338.41 190.09C1338.41 189.109 1338.66 188.145 1339.14 187.29C1339.63 186.424 1340.32 185.686 1341.14 185.135L1286.98 99.9479ZM1342.1 195.613C1341.28 195.243 1340.54 194.699 1339.94 194.019C1339.34 193.338 1338.9 192.537 1338.64 191.669L1296.2 197.369L1308.98 313.069C1309.2 313.076 1309.41 313.09 1309.62 313.111L1321.07 272.522L1342.68 195.85C1342.48 195.775 1342.29 195.702 1342.1 195.614L1342.1 195.613ZM1347.34 195.954C1346.38 196.25 1345.37 196.346 1344.37 196.235L1322.62 273.375L1311.31 313.507C1311.49 313.577 1311.68 313.651 1311.86 313.735C1312.8 314.171 1313.63 314.821 1314.28 315.635L1389.6 278.435L1347.34 195.954ZM1391.14 277.688L1505.95 220.988C1505.68 220.231 1505.58 219.426 1505.65 218.626L1351.63 191.9C1351.52 192.246 1351.37 192.581 1351.2 192.9C1350.65 193.874 1349.86 194.687 1348.9 195.255L1391.14 277.688ZM1383.99 139.856L1349.69 185.5C1350.41 186.078 1350.98 186.815 1351.37 187.653C1351.76 188.492 1351.95 189.409 1351.92 190.333L1506.01 217.073C1506.11 216.809 1506.22 216.552 1506.35 216.303L1383.99 139.856ZM1506.69 222.427L1391.87 279.127L1408.95 312.44C1409.94 312.13 1411 312.046 1412.03 312.196C1413.07 312.346 1414.05 312.724 1414.92 313.305L1506.91 222.727C1506.83 222.632 1506.75 222.532 1506.68 222.427H1506.69ZM1509.31 224.627C1508.89 224.421 1508.48 224.175 1508.1 223.892L1416.2 314.386C1416.87 315.124 1417.35 316.017 1417.6 316.986L1526.94 307.956L1512.22 225.283C1511.22 225.267 1510.22 225.043 1509.31 224.624L1509.31 224.627ZM1515.34 224.669C1514.89 224.866 1514.43 225.018 1513.95 225.122L1528.68 307.816L1571.21 304.301C1571.24 303.403 1571.49 302.527 1571.92 301.742C1572.3 301.08 1572.79 300.49 1573.38 299.999L1515.34 224.669ZM1604.46 199.733C1603.09 199.11 1601.97 198.027 1601.32 196.671L1519.06 218.187C1519.28 219.469 1519.04 220.785 1518.4 221.917C1518 222.647 1517.45 223.286 1516.79 223.798L1574.79 299.078C1576.01 298.502 1577.36 298.27 1578.7 298.407L1605.08 199.99C1604.87 199.915 1604.66 199.828 1604.45 199.73L1604.46 199.733ZM1606.77 200.366L1580.39 298.776C1580.6 298.853 1580.81 298.934 1581.01 299.029C1581.51 299.267 1581.98 299.562 1582.41 299.908L1650.04 245.536L1610.94 199.551C1609.66 200.227 1608.2 200.509 1606.76 200.363L1606.77 200.366ZM1750 163.394L1614.24 193.551C1614.38 194.752 1614.13 195.967 1613.55 197.024C1613.22 197.6 1612.81 198.121 1612.32 198.567L1651.35 244.485L1750.69 164.624C1750.41 164.241 1750.17 163.827 1749.99 163.391L1750 163.394ZM1753.24 166.684C1752.73 166.456 1752.26 166.165 1751.84 165.819L1652.42 245.739L1714.8 319.125C1716.02 318.476 1717.4 318.186 1718.78 318.288L1754.04 167C1753.76 166.913 1753.49 166.806 1753.23 166.681L1753.24 166.684ZM1756.75 167.341C1756.42 167.363 1756.08 167.361 1755.75 167.334L1720.48 318.626C1720.76 318.713 1721.03 318.818 1721.29 318.939C1721.6 319.088 1721.9 319.259 1722.19 319.449L1778.03 265.259L1756.75 167.341ZM1759.35 171.165L1779.49 263.831L1787.39 256.175C1786.57 255.281 1786.05 254.15 1785.91 252.943C1785.76 251.736 1786 250.515 1786.6 249.454C1787.26 248.279 1788.28 247.342 1789.51 246.776L1759.35 171.165ZM1792.14 258.435C1791.25 258.372 1790.37 258.148 1789.56 257.774C1789.25 257.626 1788.94 257.455 1788.66 257.264L1779.92 265.753L1797.89 348.453L1792.14 258.435ZM1798.45 255.373C1797.93 256.157 1797.26 256.825 1796.47 257.334C1795.69 257.843 1794.8 258.182 1793.88 258.329L1799.96 353.729C1800.86 353.782 1801.74 354.005 1802.55 354.386C1803.45 354.785 1804.24 355.389 1804.86 356.15C1805.48 356.91 1805.92 357.807 1806.13 358.766L2001.93 336.223C2001.89 335.421 2002.02 334.619 2002.31 333.871L1798.45 255.373ZM2002.22 337.785L1806.23 360.359C1806.2 360.626 1806.16 360.892 1806.1 361.153L1917.13 387.183L1957.37 396.614C1957.46 396.438 1957.53 396.27 1957.63 396.101C1958.53 394.615 1959.95 393.514 1961.61 393.008C1963.27 392.502 1965.06 392.627 1966.63 393.359L2004.68 340.934C2003.53 340.185 2002.67 339.077 2002.22 337.784L2002.22 337.785ZM2006.21 341.712L1968.08 394.239C1968.72 394.732 1969.24 395.345 1969.64 396.044C1970.03 396.743 1970.28 397.513 1970.37 398.31L2019.84 399.755L2009.37 342.096C2008.3 342.204 2007.22 342.072 2006.2 341.71L2006.21 341.712ZM2010.52 250.153L2009.61 329.82C2010.35 329.917 2011.06 330.123 2011.74 330.432C2012.51 330.751 2013.2 331.228 2013.77 331.832C2014.35 332.435 2014.78 333.152 2015.06 333.936C2015.34 334.72 2015.45 335.554 2015.39 336.384C2015.32 337.213 2015.09 338.02 2014.69 338.752C2014.3 339.441 2013.79 340.052 2013.18 340.552L2051.33 396.538L2051.48 396.485L2010.55 250.153H2010.52ZM2013.53 249.13C2013.11 249.377 2012.68 249.586 2012.23 249.756L2053.15 396.083C2054.47 395.93 2055.82 396.148 2057.03 396.712C2057.25 396.813 2057.47 396.928 2057.67 397.056L2106.55 345.018L2013.53 249.13ZM2204.27 235.997L2016.47 244.504C2016.39 245.316 2016.15 246.104 2015.76 246.817C2015.5 247.271 2015.19 247.691 2014.82 248.065L2107.7 343.807L2205.94 239.224C2205.05 238.348 2204.47 237.22 2204.26 235.996L2204.27 235.997ZM2207.88 240.597C2207.66 240.497 2207.44 240.379 2207.24 240.256L2108.87 345.004L2147.18 384.504C2148.75 383.547 2150.61 383.216 2152.41 383.576L2207.99 240.629L2207.88 240.597ZM2209.63 241.145L2154.05 384.114C2154.6 384.371 2155.12 384.703 2155.58 385.102L2263.02 303.502L2214.35 240.425C2212.9 241.186 2211.24 241.441 2209.63 241.149L2209.63 241.145ZM2225.8 157.333L2213.03 229.2C2213.37 229.298 2213.69 229.42 2214.01 229.566C2215.09 230.062 2216.01 230.84 2216.68 231.816L2297.39 199.797L2231.34 155.376C2230.61 156.08 2229.74 156.619 2228.78 156.957C2227.82 157.296 2226.8 157.425 2225.79 157.338L2225.8 157.333ZM2458.53 135.377L2233.14 151.153C2233.15 152.141 2232.9 153.114 2232.41 153.976L2232.34 154.076L2299.24 199.059L2458.65 135.821C2458.6 135.675 2458.56 135.526 2458.52 135.382L2458.53 135.377ZM2462.08 139.627C2460.96 139.114 2460.02 138.301 2459.34 137.279L2300.85 200.163L2417.3 278.475C2418.06 277.761 2418.98 277.224 2419.97 276.902C2420.96 276.58 2422.02 276.481 2423.05 276.612L2462.58 139.831C2462.41 139.775 2462.24 139.706 2462.07 139.632L2462.08 139.627Z" fill="url(#paint0_linear)"/>
<defs>
<linearGradient id="paint0_linear" x1="198.617" y1="451.556" x2="2103.46" y2="451.556" gradientUnits="userSpaceOnUse">
<stop stop-color="#ECFEFF"/>
<stop offset="0.18" stop-color="#8ECAE4"/>
<stop offset="0.486" stop-color="#4570B4"/>
<stop offset="0.999" stop-color="#B6FBFF"/>
<stop offset="1" stop-color="#B6FBFF"/>
</linearGradient>
</defs>
</svg>
