<svg version="1" xmlns="http://www.w3.org/2000/svg" width="426.667" height="426.667" viewBox="0 0 320.000000 320.000000"><path d="M138.5 1.5c-12.8 2.1-14.5 2.4-24 5.2-38 11-72.4 38-92.7 72.6C12 96 3.9 119.5 1.3 138.9c-.9 6.9-.9 34.7 0 41.8 7.9 60 49.2 110.5 106.6 130.5 18.3 6.3 30.5 8.3 52.6 8.3 16.1 0 23-.7 34.7-3.4 43.1-10.1 78.7-35.8 101.8-73.6 11.2-18.3 18.6-39.8 21.9-63.5 1-6.9.7-36.1-.4-42-7-37.9-20.9-65.4-45.5-90-23.2-23.2-54.8-39.7-85-44.5-2.5-.4-5.4-.9-6.5-1.2-4.9-1.1-35.5-1-43 .2z"/></svg>